# AST/ASF file generated using VICON BodyLanguage
# -----------------------------------------------
:version 1.10
:name VICON
:units
  mass 1.0
  length 0.45
  angle deg
:documentation
   .ast/.asf automatically generated from VICON data using
   VICON BodyBuilder and BodyLanguage model FoxedUp or BRILLIANT.MOD
:root
   order TX TY TZ RX RY RZ
   axis XYZ
   position 0 0 0  
   orientation 0 -0 0 
:bonedata
  begin
     id 1 
     name lhipjoint
     direction 0.500677 -0.737119 0.453848 
     length 2.34727 
     axis 0 -0 0  XYZ
  end
  begin
     id 2 
     name lfemur
     direction 0.34202 -0.939693 0  
     length 7.53653  
     axis 0 -0 20  XYZ
    dof rx ry rz
    limits (-160.0 20.0)
           (-70.0 70.0)
           (-60.0 70.0)
  end
  begin
     id 3 
     name ltibia
     direction 0.34202 -0.939693 0   
     length 6.85572   
     axis 0 -0 20   XYZ
    dof rx
    limits (-10.0 170.0)
  end
  begin
     id 4 
     name lfoot
     direction 0.155313 -0.426718 0.890949   
     length 2.18324   
     axis -90 -1.13533e-015 20   XYZ
    dof rx rz
    limits (-45.0 90.0)
           (-70.0 20.0)
  end
  begin
     id 5 
     name ltoes
     direction 1.53474e-011 -4.21647e-011 1   
     length 1.06748   
     axis -90 -1.13533e-015 20   XYZ
    dof rx
    limits (-90.0 20.0)
  end
  begin
     id 6 
     name rhipjoint
     direction -0.632471 -0.659587 0.406111   
     length 2.62319  
     axis 0 -0 0  XYZ 
  end
  begin
     id 7 
     name rfemur
     direction -0.34202 -0.939693 0   
     length 7.21735   
     axis 0 -0 -20   XYZ
    dof rx ry rz
    limits (-160.0 20.0)
           (-70.0 70.0)
           (-70.0 60.0)
  end
  begin
     id 8 
     name rtibia
     direction -0.34202 -0.939693 0   
     length 7.02558   
     axis 0 -0 -20   XYZ
    dof rx
    limits (-10.0 170.0)
 end
 begin
     id 9 
     name rfoot
     direction -0.16057 -0.441164 0.882945   
     length 2.10014  
     axis -90 1.13533e-015 -20   XYZ
    dof rx rz
    limits (-45.0 90.0)
           (-20.0 70.0)
  end
  begin
     id 10 
     name rtoes
     direction -1.53553e-011 -4.2192e-011 1   
     length 1.02554   
     axis -90 1.13533e-015 -20   XYZ
    dof rx
    limits (-90.0 20.0)
  end
  begin
     id 11 
     name lowerback
     direction 0.0401429 0.998861 -0.0258085   
     length 1.80848   
     axis 0 -0 0   XYZ
    dof rx ry rz
    limits (-20.0 45.0)
           (-30.0 30.0)
           (-30.0 30.0)
  end
  begin
     id 12 
     name upperback
     direction -0.0130978 0.999914 -0.000352645   
     length 1.8116   
     axis 0 -0 0   XYZ
    dof rx ry rz
    limits (-20.0 45.0)
           (-30.0 30.0)
           (-30.0 30.0)
  end
  begin
     id 13 
     name thorax
     direction -0.0300198 0.999453 0.0138573   
     length 1.81778   
     axis 0 -0 0   XYZ
    dof rx ry rz
    limits (-20.0 45.0)
           (-30.0 30.0)
           (-30.0 30.0)
  end
  begin
     id 14 
     name lowerneck
     direction -0.0401726 0.999191 -0.00173647   
     length 2.10594   
     axis 0 -0 0   XYZ
    dof rx ry rz
    limits (-20.0 45.0)
           (-30.0 30.0)
           (-30.0 30.0)
  end
  begin
     id 15 
     name upperneck
     direction 0.0119835 0.998501 0.0534085   
     length 2.07325   
     axis 0 -0 0   XYZ
    dof rx ry rz
    limits (-20.0 45.0)
           (-30.0 30.0)
           (-30.0 30.0)
  end
  begin
     id 16
     name head
     direction 0.00628309 0.999826 0.0175921  
     length 2.15096  
     axis 0 -0 0   XYZ
    dof rx ry rz
    limits (-20.0 45.0)
           (-30.0 30.0)
           (-30.0 30.0)
  end
  begin
     id 17 
     name lclavicle
     direction 0.895501 0.429681 -0.115981  
     length 4.18092  
     axis 0 -0 0   XYZ
    dof ry rz
    limits (-20.0 10.0)
           (0.0 20.0)
  end
  begin
     id 18 
     name lhumerus
     direction 1 -4.48961e-011 -3.38433e-028   
     length 5.77237   
     axis 180 -30 -90   XYZ
    dof rx ry rz
    limits (-60.0 90.0)
           (-90.0 90.0)
           (-90.0 90.0)
  end
  begin
     id 19
     name lradius
     direction 1 -4.4901e-011 1.11983e-026   
     length 2.91878   
     axis 180 -30 -90   XYZ
    dof rx
    limits (-10.0 170.0)
  end
  begin
     id 20
     name lwrist
     direction 1 -4.48934e-011 1.88176e-026   
     length 1.45939   
     axis -1.23311e-014 90 90   XYZ
    dof ry
    limits (-180.0 0.0)
 end
  begin
     id 21 
     name lhand
     direction 1 -4.4895e-011 3.76352e-026   
     length 1.06566   
     axis -2.40147e-014 90 90   XYZ
    dof rx rz
    limits (-90.0 90.0)
           (-45.0 45.0)
  end
  begin
     id 22 
     name lfingers
     direction 1 -4.49005e-011 7.52705e-026   
     length 0.859162   
     axis -4.80295e-014 90 90   XYZ
    dof rx
    limits (0.0 90.0)
  end
  begin
     id 23
     name lthumb
     direction 0.707107 -6.34885e-011 0.707107   
     length 1.23359   
     axis -90 45 -9.86935e-015   XYZ
    dof rx rz
    limits (-45.0 45.0)
           (-45.0 45.0)
  end
  begin
     id 24 
     name rclavicle
     direction -0.91006 0.40451 -0.0903492   
     length 4.23293  
     axis 0 -0 0   XYZ 
    dof ry rz
    limits (-10.0 20.0)
           (-20.0 0.0)
  end
  begin
     id 25 
     name rhumerus
     direction -1 -4.4897e-011 1.7415e-027  
     length 5.49854   
     axis 180 30 90   XYZ
    dof rx ry rz
    limits (-90.0 60.0)
           (-90.0 90.0)
           (-90.0 90.0)
  end
  begin
     id 26 
     name rradius
     direction -1 -4.48963e-011 1.21259e-026   
     length 3.1186   
     axis 180 30 90   XYZ
    dof rx
    limits (-10.0 170.0)
  end
  begin
     id 27 
     name rwrist
     direction -1 -4.48967e-011 1.88176e-026   
     length 1.5593   
     axis -1.23311e-014 -90 -90   XYZ
    dof ry
    limits (-180.0 0.0)
  end
  begin
     id 28
     name rhand
     direction -1 -4.4895e-011 3.76352e-026   
     length 0.71207   
     axis -2.40147e-014 -90 -90   XYZ
    dof rx rz
    limits (-90.0 90.0)
           (-45.0 45.0)
  end
  begin
     id 29
     name rfingers
     direction -1 -4.49005e-011 7.52705e-026   
     length 0.574089   
     axis -4.80295e-014 -90 -90   XYZ
    dof rx
    limits (0.0 90.0)
  end
  begin
     id 30
     name rthumb
     direction -0.707107 -6.34982e-011 0.707107   
     length 0.824281   
     axis -90 -45 9.86935e-015   XYZ
    dof rx rz
    limits (-45.0 45.0)
           (-45.0 45.0)
  end
:hierarchy
  begin
    root lhipjoint rhipjoint lowerback
    lhipjoint lfemur
    lfemur ltibia
    ltibia lfoot
    lfoot ltoes
    rhipjoint rfemur
    rfemur rtibia
    rtibia rfoot
    rfoot rtoes
    lowerback upperback
    upperback thorax
    thorax lowerneck lclavicle rclavicle
    lowerneck upperneck
    upperneck head
    lclavicle lhumerus
    lhumerus lradius
    lradius lwrist
    lwrist lhand lthumb
    lhand lfingers
    rclavicle rhumerus
    rhumerus rradius
    rradius rwrist
    rwrist rhand rthumb
    rhand rfingers
  end

#!OML:ASF C:\ViconDB\ViconDB\414\Spring2016\042216\male.ASF
:FULLY-SPECIFIED
:DEGREES
745
root 31.588 17.6043 0.350395 -531.588 57.68 -174.897
lowerback -2.15179 -3.44282 0.634836
upperback -0.609791 -4.5952 -0.211476
thorax 0.511013 -2.2943 -0.685108
lowerneck 1.74037 -5.56782 -9.40219
upperneck 4.05868 -7.8471 11.9822
head 1.7575 -3.88048 5.01406
rclavicle 9.16894e-014 7.15625e-015
rhumerus -28.2579 -7.17412 -92.9873
rradius 28.7423
rwrist 31.3517
rhand 6.25079 -20.9217
rfingers 7.12502
rthumb 31.5623 -48.2145
lclavicle 9.16894e-014 7.15625e-015
lhumerus -32.3908 7.69445 84.7911
lradius 33.4888
lwrist -9.83388
lhand -9.01125 15.0778
lfingers 7.12502
lthumb 16.9356 44.3594
rfemur -16.0052 1.10918 10.6884
rtibia 28.9047
rfoot -17.3396 -9.423
rtoes -14.1936
lfemur -3.93743 -14.427 -16.8379
ltibia 19.8176
lfoot -42.3187 48.7712
ltoes -2.65892
746
root 31.6392 17.598 0.392683 -531.824 58.1336 -175.126
lowerback -2.18299 -3.40984 0.547636
upperback -0.640534 -4.54918 -0.195893
thorax 0.50574 -2.27124 -0.62089
lowerneck 1.65666 -5.27883 -9.27342
upperneck 4.06426 -7.44747 11.9291
head 1.72207 -3.67728 4.98809
rclavicle 2.80286e-014 -1.47101e-014
rhumerus -28.4732 -7.60776 -92.8
rradius 28.7234
rwrist 31.4427
rhand 6.18518 -21.121
rfingers 7.12502
rthumb 31.4998 -48.426
lclavicle 2.80286e-014 -1.47101e-014
lhumerus -32.216 7.51873 84.802
lradius 34.0986
lwrist -9.01537
lhand -9.1741 15.0113
lfingers 7.12502
lthumb 16.7788 44.3063
rfemur -15.8482 1.56518 10.1404
rtibia 28.4299
rfoot -17.3659 -10.9466
rtoes -13.9924
lfemur -3.52396 -14.8473 -16.911
ltibia 19.5158
lfoot -43.1308 49.198
ltoes -2.36063
747
root 31.6916 17.5872 0.435821 -531.962 58.6201 -175.212
lowerback -2.22428 -3.3665 0.52757
upperback -0.637835 -4.49174 -0.12893
thorax 0.539303 -2.24238 -0.543167
lowerneck 1.64014 -4.91057 -9.32942
upperneck 3.95363 -6.94446 12.0049
head 1.64181 -3.42784 5.0378
rclavicle 1.34155e-013 1.27222e-014
rhumerus -28.5629 -7.92542 -92.5698
rradius 28.6074
rwrist 31.6309
rhand 5.95742 -21.2455
rfingers 7.12502
rthumb 31.2828 -48.5927
lclavicle 1.34155e-013 1.27222e-014
lhumerus -32.0572 7.07044 84.9548
lradius 34.8012
lwrist -7.84643
lhand -9.5034 15.1139
lfingers 7.12502
lthumb 16.4618 44.4355
rfemur -15.6839 2.25034 9.69925
rtibia 27.9262
rfoot -17.4994 -12.5598
rtoes -13.5763
lfemur -3.12456 -14.9027 -16.8737
ltibia 19.2819
lfoot -43.7137 49.4064
ltoes -2.1423
748
root 31.7449 17.5768 0.481558 -532.434 59.0881 -175.707
lowerback -2.29937 -3.30653 0.443033
upperback -0.628402 -4.40926 -0.222887
thorax 0.590935 -2.20088 -0.595266
lowerneck 1.5222 -4.56459 -9.0476
upperneck 3.96039 -6.46142 11.8617
head 1.5965 -3.18087 4.95901
rclavicle 9.19379e-015 3.97569e-015
rhumerus -28.6431 -8.61505 -92.3981
rradius 28.5382
rwrist 32.1846
rhand 5.95728 -21.3274
rfingers 7.12502
rthumb 31.2826 -48.6746
lclavicle 9.19379e-015 3.97569e-015
lhumerus -31.8277 7.0876 84.7795
lradius 35.3161
lwrist -7.71189
lhand -9.47671 14.919
lfingers 7.12502
lthumb 16.4875 44.2384
rfemur -15.5398 3.10064 9.05778
rtibia 27.426
rfoot -17.6076 -14.2774
rtoes -13.1462
lfemur -2.73859 -15.3448 -17.0872
ltibia 19.0744
lfoot -44.6856 49.7923
ltoes -1.63323
749
root 31.7992 17.562 0.532539 -532.716 59.5347 -175.891
lowerback -2.20289 -3.25994 0.430339
upperback -0.65001 -4.34636 -0.24805
thorax 0.514713 -2.16982 -0.605236
lowerneck 1.46455 -4.03639 -8.68014
upperneck 3.99505 -5.73546 11.6806
head 1.52229 -2.81289 4.86129
rclavicle 8.47506e-014 1.66979e-014
rhumerus -28.7343 -9.00001 -92.2927
rradius 28.3809
rwrist 32.6581
rhand 6.07369 -21.3218
rfingers 7.12502
rthumb 31.3935 -48.6475
lclavicle 8.47506e-014 1.66979e-014
lhumerus -31.7502 6.62563 84.7613
lradius 35.9368
lwrist -6.84838
lhand -9.75158 14.7863
lfingers 7.12502
lthumb 16.2229 44.1275
rfemur -15.3355 3.95242 8.69912
rtibia 26.8943
rfoot -17.5077 -15.9369
rtoes -12.9412
lfemur -2.33598 -15.6608 -17.0932
ltibia 18.9755
lfoot -45.7051 49.9828
ltoes -1.33632
750
root 31.8537 17.5491 0.582075 -532.969 59.972 -176.108
lowerback -2.20492 -3.20835 0.493505
upperback -0.667699 -4.27849 -0.286195
thorax 0.491082 -2.13598 -0.676807
lowerneck 1.36416 -3.48512 -8.4653
upperneck 4.0795 -4.98533 11.6306
head 1.47813 -2.43113 4.82635
rclavicle -4.27884e-014 9.14409e-015
rhumerus -28.7455 -9.22342 -92.2309
rradius 28.1633
rwrist 32.9667
rhand 5.892 -21.4164
rfingers 7.12502
rthumb 31.2204 -48.7756
lclavicle -4.27884e-014 9.14409e-015
lhumerus -31.6545 6.25391 84.6625
lradius 36.5092
lwrist -6.41123
lhand -9.68958 14.6855
lfingers 7.12502
lthumb 16.2826 44.0219
rfemur -15.1971 4.85061 8.35175
rtibia 26.3858
rfoot -17.4513 -17.6367
rtoes -12.3936
lfemur -2.06689 -15.3716 -17.039
ltibia 18.9062
lfoot -45.8227 50.0111
ltoes -1.37285
751
root 31.9158 17.5311 0.640281 -533.219 60.4208 -176.286
lowerback -2.24037 -3.18195 0.463268
upperback -0.642867 -4.24274 -0.311017
thorax 0.53717 -2.11793 -0.687655
lowerneck 1.2341 -2.85248 -8.19877
upperneck 4.14823 -4.12276 11.5731
head 1.42364 -1.99194 4.78054
rclavicle 3.56943e-014 -1.51076e-014
rhumerus -28.6658 -9.40294 -92.2256
rradius 27.9419
rwrist 33.4298
rhand 5.80513 -21.473
rfingers 7.12502
rthumb 31.1376 -48.8481
lclavicle 3.56943e-014 -1.51076e-014
lhumerus -31.5505 6.00112 84.536
lradius 37.0145
lwrist -5.7268
lhand -10.0342 14.6247
lfingers 7.12502
lthumb 15.9507 43.9879
rfemur -15.0003 5.90181 8.12274
rtibia 25.8613
rfoot -17.1021 -19.2582
rtoes -12.2535
lfemur -1.74906 -15.539 -17.004
ltibia 18.9429
lfoot -46.6328 50.1977
ltoes -1.24685
752
root 31.9751 17.5117 0.699574 -533.581 60.8091 -176.561
lowerback -2.20059 -3.13269 0.48402
upperback -0.644644 -4.17681 -0.385396
thorax 0.507067 -2.08512 -0.770749
lowerneck 1.13993 -2.16591 -7.87703
upperneck 4.3238 -3.19573 11.5487
head 1.39039 -1.51711 4.73494
rclavicle -9.93923e-014 -3.18055e-015
rhumerus -28.6424 -10.1079 -92.0649
rradius 27.6833
rwrist 34.6733
rhand 5.94174 -21.1399
rfingers 7.12502
rthumb 31.2678 -48.49
lclavicle -9.93923e-014 -3.18055e-015
lhumerus -31.5217 5.65774 84.3736
lradius 37.5333
lwrist -5.52338
lhand -10.0294 14.5724
lfingers 7.12502
lthumb 15.9553 43.9353
rfemur -14.8292 6.99189 7.87599
rtibia 25.3525
rfoot -16.5888 -20.8084
rtoes -11.7023
lfemur -1.44939 -15.674 -17.0026
ltibia 19.018
lfoot -46.6794 50.8407
ltoes -1.599
753
root 32.0383 17.4913 0.765009 -533.807 61.1579 -176.649
lowerback -2.16675 -3.11849 0.483747
upperback -0.625785 -4.15851 -0.346739
thorax 0.510666 -2.07609 -0.729432
lowerneck 1.10375 -1.3779 -7.7574
upperneck 4.40998 -2.13379 11.5939
head 1.31407 -0.981155 4.74462
rclavicle -2.1388e-014 -9.54166e-015
rhumerus -28.5889 -9.94401 -92.0544
rradius 27.536
rwrist 34.9855
rhand 6.00271 -21.2144
rfingers 7.12502
rthumb 31.3259 -48.5532
lclavicle -2.1388e-014 -9.54166e-015
lhumerus -31.4525 5.70092 84.2573
lradius 37.8843
lwrist -5.21982
lhand -10.2262 14.4487
lfingers 7.12502
lthumb 15.7658 43.8266
rfemur -14.6165 7.86342 7.85357
rtibia 24.8598
rfoot -16.0459 -21.9962
rtoes -11.4637
lfemur -1.20528 -15.1446 -16.7716
ltibia 19.1486
lfoot -46.3877 50.7234
ltoes -1.8138
754
root 32.1061 17.4708 0.831298 -534.343 61.532 -177.107
lowerback -2.18805 -3.11916 0.343134
upperback -0.615094 -4.15528 -0.446875
thorax 0.536131 -2.07425 -0.755192
lowerneck 1.14847 -0.520615 -7.32008
upperneck 4.48088 -0.974822 11.5344
head 1.20967 -0.394397 4.66566
rclavicle -6.27632e-014 3.18055e-015
rhumerus -28.5147 -9.86644 -92.2734
rradius 27.3038
rwrist 35.0739
rhand 5.88741 -21.2135
rfingers 7.12502
rthumb 31.216 -48.5735
lclavicle -6.27632e-014 3.18055e-015
lhumerus -31.4501 5.2344 84.0634
lradius 38.2405
lwrist -4.82306
lhand -10.4642 14.5353
lfingers 7.12502
lthumb 15.5366 43.9311
rfemur -14.4516 8.90902 7.6336
rtibia 24.3979
rfoot -15.344 -23.0241
rtoes -10.7719
lfemur -0.925145 -15.2436 -16.8224
ltibia 19.2951
lfoot -47.0655 50.8086
ltoes -1.68406
755
root 32.1743 17.447 0.895622 -534.692 61.8689 -177.279
lowerback -2.15503 -3.1216 0.42828
upperback -0.59834 -4.16006 -0.504792
thorax 0.524397 -2.07673 -0.860028
lowerneck 1.10124 0.379491 -6.82347
upperneck 4.73083 0.237073 11.3084
head 1.17498 0.222825 4.52179
rclavicle 3.21224e-014 5.96354e-015
rhumerus -28.451 -9.64286 -92.4231
rradius 27.184
rwrist 35.4057
rhand 6.0993 -21.2549
rfingers 7.12502
rthumb 31.4179 -48.5759
lclavicle 3.21224e-014 5.96354e-015
lhumerus -31.4634 4.97545 83.8716
lradius 38.4111
lwrist -4.43468
lhand -10.8257 14.4043
lfingers 7.12502
lthumb 15.1884 43.8269
rfemur -14.2364 9.82498 7.66808
rtibia 23.9877
rfoot -14.1796 -23.8602
rtoes -10.7783
lfemur -0.597567 -14.9694 -16.6787
ltibia 19.4303
lfoot -47.3839 50.6084
ltoes -1.70051
756
root 32.2448 17.4237 0.968691 -535.049 62.1822 -177.539
lowerback -2.17388 -3.1236 0.325092
upperback -0.580473 -4.1607 -0.490893
thorax 0.561597 -2.07693 -0.790588
lowerneck 1.05798 1.31225 -6.44639
upperneck 4.84697 1.51815 10.7496
head 1.23818 0.85402 4.76487
rclavicle -3.13241e-015 -2.78299e-015
rhumerus -28.344 -9.58374 -92.5475
rradius 27.0352
rwrist 35.6322
rhand 5.81756 -21.3178
rfingers 7.12502
rthumb 31.1495 -48.6907
lclavicle -3.13241e-015 -2.78299e-015
lhumerus -31.3635 4.8835 83.7512
lradius 38.5035
lwrist -4.05492
lhand -11.0467 14.4015
lfingers 7.12502
lthumb 14.9755 43.84
rfemur -14.0831 10.7348 7.7041
rtibia 23.6083
rfoot -12.96 -24.3267
rtoes -10.3467
lfemur -0.370144 -14.7292 -16.5214
ltibia 19.5949
lfoot -47.6626 50.4095
ltoes -1.70916
757
root 32.3211 17.4013 1.04021 -535.431 62.4274 -177.76
lowerback -2.19511 -3.13236 0.336115
upperback -0.566327 -4.17233 -0.525219
thorax 0.58442 -2.08262 -0.833766
lowerneck 1.15464 2.27261 -6.09733
upperneck 5.04134 2.80496 10.6332
head 1.16342 1.50432 4.64761
rclavicle -7.33236e-014 3.97569e-016
rhumerus -28.3015 -9.20931 -92.7077
rradius 26.9414
rwrist 35.7847
rhand 6.05602 -21.295
rfingers 7.12502
rthumb 31.3767 -48.624
lclavicle -7.33236e-014 3.97569e-016
lhumerus -31.3809 4.78056 83.5196
lradius 38.4674
lwrist -4.31601
lhand -10.897 14.2321
lfingers 7.12502
lthumb 15.1197 43.6599
rfemur -13.8855 11.4506 7.84295
rtibia 23.2927
rfoot -11.5932 -24.4099
rtoes -10.475
lfemur -0.0495203 -14.6399 -16.3756
ltibia 19.7518
lfoot -47.9625 50.3043
ltoes -1.705
758
root 32.3972 17.374 1.1128 -535.614 62.6888 -177.761
lowerback -2.23924 -3.10001 0.506857
upperback -0.523364 -4.13333 -0.550927
thorax 0.639752 -2.06281 -0.957832
lowerneck 1.29179 3.18976 -5.5431
upperneck 5.19824 4.03837 10.3425
head 1.08912 2.12738 4.42055
rclavicle 2.7185e-014 6.36111e-015
rhumerus -28.2759 -8.72408 -92.9196
rradius 27.0417
rwrist 35.2899
rhand 6.09611 -21.3353
rfingers 7.12502
rthumb 31.4149 -48.6569
lclavicle 2.7185e-014 6.36111e-015
lhumerus -31.3108 4.61712 83.3402
lradius 38.3569
lwrist -4.42922
lhand -11.0919 14.2633
lfingers 7.12502
lthumb 14.932 43.7051
rfemur -13.7228 12.0969 8.17301
rtibia 23.0791
rfoot -9.84599 -24.3959
rtoes -11.3036
lfemur 0.27564 -14.4284 -16.0877
ltibia 19.8501
lfoot -48.1142 50.1744
ltoes -1.38838
